<svg xmlns="http://www.w3.org/2000/svg" viewBox="0 0 21.78 211.52"><title>about</title><g id="圖層_2" data-name="圖層 2"><g id="圖層_1-2" data-name="圖層 1"><path d="M7.85,12.22V3.71L.38,1.07V0l21,7.5v1L.38,16V14.83Zm.93-.32L13,10.46c2.55-.9,4.7-1.63,7.33-2.41V7.94C17.67,7.15,15.52,6.4,13,5.5L8.78,4Z"/><path d="M21.4,49.62v5.5c0,4.2-1.62,6.86-5.09,6.86a4.48,4.48,0,0,1-4.58-3.33h-.15c-.43,2.78-2.17,4.64-5.09,4.64-4,0-6.11-3-6.11-7.8V49.62ZM1.33,55.12c0,4.37,1.57,7.09,5.1,7.09,3.19,0,4.69-2.6,4.69-7.09V50.69H1.33Zm10.75-.64c0,4.58,1.56,6.37,4.17,6.37,3.1,0,4.23-2.11,4.23-6.17v-4h-8.4Z"/><path d="M11,96.65c6.63,0,10.83,3.57,10.83,8.55s-4.2,8.54-10.83,8.54S0,110.18,0,105.2,4.32,96.65,11,96.65Zm0,16c6,0,9.82-3,9.82-7.41S17,97.78,11,97.78,1,100.77,1,105.2,4.92,112.61,11,112.61Z"/><path d="M8.25,148.79H21.4v1.07H8.49c-5.77,0-7.48,2.78-7.48,5.82s1.71,5.94,7.48,5.94H21.4v1H8.25c-6.51,0-8.25-3.56-8.25-7S1.74,148.79,8.25,148.79Z"/><path d="M20.45,203.62v-6.78h.95v14.68h-.95v-6.77H.38v-1.13Z"/></g></g></svg>