<svg xmlns="http://www.w3.org/2000/svg" viewBox="0 0 37.85 26"><defs><style>.cls-1{fill:#fff;}</style></defs><title>camera_icon</title><g id="圖層_2" data-name="圖層 2"><g id="圖層_1-2" data-name="圖層 1"><path class="cls-1" d="M34.16,0H3.69A3.76,3.76,0,0,0,0,3.8V22.2A3.76,3.76,0,0,0,3.69,26H34.16a3.75,3.75,0,0,0,3.69-3.8V3.8A3.75,3.75,0,0,0,34.16,0Zm1.75,22.2A1.78,1.78,0,0,1,34.16,24H3.69a1.78,1.78,0,0,1-1.75-1.8V3.8A1.78,1.78,0,0,1,3.69,2H34.16a1.78,1.78,0,0,1,1.75,1.8Z"/><path class="cls-1" d="M18.93,4.5a8.5,8.5,0,1,0,8.5,8.5A8.5,8.5,0,0,0,18.93,4.5Zm0,15a6.5,6.5,0,1,1,6.5-6.5A6.5,6.5,0,0,1,18.93,19.5Z"/><circle class="cls-1" cx="6.93" cy="6" r="1.5"/></g></g></svg>