<svg xmlns="http://www.w3.org/2000/svg" viewBox="0 0 278 159.72"><defs><style>.cls-1{fill:#fff;}</style></defs><title>index_centerLOGO</title><g id="圖層_2" data-name="圖層 2"><g id="圖層_1-2" data-name="圖層 1"><path class="cls-1" d="M0,75.72v39H278v-39Zm277,38H1v-37H277Z"/><path class="cls-1" d="M47.86,51.65q5.28-6,5.28-17.44V0H40.4V33.7q0,13-8.74,13a11.85,11.85,0,0,1-7.35-2.49v12a21.69,21.69,0,0,0,8.26,1.54Q42.58,57.7,47.86,51.65Z"/><rect class="cls-1" x="65.56" width="12.77" height="56.72"/><path class="cls-1" d="M103,44.1h20.17l4,12.62H141.1L120.93,0H105.78L85.13,56.72H99Zm8.9-29a21.43,21.43,0,0,0,1-4.94h.32a24.57,24.57,0,0,0,.95,5.1l6.09,19.06H105.7Z"/><path class="cls-1" d="M159.92,44.1H180.1l4,12.62h13.92L177.88,0H162.73L142.09,56.72h13.84Zm8.9-29a21.43,21.43,0,0,0,1-4.94h.32a24.57,24.57,0,0,0,1,5.1l6.09,19.06H162.65Z"/><path class="cls-1" d="M216.88,44.1h20.17l4,12.62H255L234.83,0H219.69L199,56.72h13.84Zm8.9-29a22.54,22.54,0,0,0,1-4.94h.31a25.25,25.25,0,0,0,.95,5.1l6.09,19.06H219.61Z"/><path class="cls-1" d="M16.21,96.52H17.6a1.9,1.9,0,0,1,1.16.35,3.71,3.71,0,0,1,.92,1.36l1.49,3.28h.88l-1.67-3.57a3,3,0,0,0-1.29-1.61v0a3.21,3.21,0,0,0,1.94-1,3,3,0,0,0,.7-2,2.8,2.8,0,0,0-.85-2.11,3.28,3.28,0,0,0-2.33-.8H15.44v11.2h.77Zm0-5.5H18.3a2.8,2.8,0,0,1,1.95.61,2.13,2.13,0,0,1,.68,1.67,2.37,2.37,0,0,1-.75,1.85,3,3,0,0,1-2,.67H16.21Z"/><path class="cls-1" d="M28,101.71a4.66,4.66,0,0,0,2.77-.88v-.77a4.25,4.25,0,0,1-2.62,1,2.55,2.55,0,0,1-2.09-.93,4,4,0,0,1-.76-2.58h5.92v-.32a4.6,4.6,0,0,0-.8-2.85,2.69,2.69,0,0,0-2.29-1.05,3.22,3.22,0,0,0-2.59,1.2,4.48,4.48,0,0,0-1,3,4.63,4.63,0,0,0,.95,3.13A3.13,3.13,0,0,0,28,101.71Zm-1.76-7A2.5,2.5,0,0,1,28.1,94a2.07,2.07,0,0,1,1.7.77,3.55,3.55,0,0,1,.67,2.15H25.33A3.59,3.59,0,0,1,26.24,94.73Z"/><path class="cls-1" d="M37.22,101.71a3.92,3.92,0,0,0,2.12-.55v-.75a3.46,3.46,0,0,1-2.09.64,2.64,2.64,0,0,1-2.12-.94,3.77,3.77,0,0,1-.8-2.5A3.86,3.86,0,0,1,35.21,95a2.85,2.85,0,0,1,2.28-1,3.46,3.46,0,0,1,1.88.54v-.82a4.36,4.36,0,0,0-1.77-.37,3.75,3.75,0,0,0-2.89,1.21,4.41,4.41,0,0,0-1.13,3.12,4.29,4.29,0,0,0,1,2.94A3.4,3.4,0,0,0,37.22,101.71Z"/><path class="cls-1" d="M45.43,101.71a3.48,3.48,0,0,0,2.77-1.16,4.4,4.4,0,0,0,1-3,4.48,4.48,0,0,0-1-3.09,3.41,3.41,0,0,0-2.7-1.12,3.69,3.69,0,0,0-2.81,1.12,5,5,0,0,0,0,6.12A3.48,3.48,0,0,0,45.43,101.71Zm-2.19-6.78a2.83,2.83,0,0,1,2.25-1,2.73,2.73,0,0,1,2.2.92,4.75,4.75,0,0,1,0,5.23,2.74,2.74,0,0,1-2.22.93,2.77,2.77,0,0,1-2.24-1,3.73,3.73,0,0,1-.82-2.52A3.87,3.87,0,0,1,43.24,94.93Z"/><path class="cls-1" d="M52.86,97.76A5.13,5.13,0,0,1,53.5,95a1.87,1.87,0,0,1,1.59-1,1.41,1.41,0,0,1,.84.25V93.5a2,2,0,0,0-.79-.14,2.07,2.07,0,0,0-1.38.51,3,3,0,0,0-.87,1.42h0V93.51h-.7v8h.7Z"/><path class="cls-1" d="M60.85,101.71a3.32,3.32,0,0,0,1.72-.45,2.85,2.85,0,0,0,1.16-1.2h0v1.45h.72V89.67h-.72v5.12h0a2.67,2.67,0,0,0-2.56-1.47,3.31,3.31,0,0,0-2.65,1.2,4.66,4.66,0,0,0-1,3.13,4.37,4.37,0,0,0,.94,3A3,3,0,0,0,60.85,101.71Zm-1.78-6.77a2.63,2.63,0,0,1,2.08-1,2.43,2.43,0,0,1,1.9.78,2.73,2.73,0,0,1,.71,1.9v1.49a3,3,0,0,1-.75,2.07,2.7,2.7,0,0,1-2.12.84,2.35,2.35,0,0,1-1.9-.9,3.94,3.94,0,0,1-.74-2.56A4,4,0,0,1,59.07,94.94Z"/><path class="cls-1" d="M76,101.51h.77V97.26l3.61-7h-.83l-2.74,5.41a7.25,7.25,0,0,0-.38.82h0c-.14-.37-.26-.64-.35-.83l-2.61-5.4h-.87l3.43,7Z"/><path class="cls-1" d="M85,101.71a3.48,3.48,0,0,0,2.77-1.16,5.12,5.12,0,0,0,0-6.11,3.41,3.41,0,0,0-2.7-1.12,3.69,3.69,0,0,0-2.81,1.12,5,5,0,0,0,0,6.12A3.49,3.49,0,0,0,85,101.71Zm-2.19-6.78A2.84,2.84,0,0,1,85,94a2.73,2.73,0,0,1,2.2.92,4.75,4.75,0,0,1,0,5.23,2.74,2.74,0,0,1-2.22.93,2.77,2.77,0,0,1-2.24-1A3.73,3.73,0,0,1,82,97.58,3.87,3.87,0,0,1,82.79,94.93Z"/><path class="cls-1" d="M94.38,101.71A2.73,2.73,0,0,0,97,100.06h0v1.45h.72v-8H97V98a3.27,3.27,0,0,1-.69,2.19,2.24,2.24,0,0,1-1.81.82,1.93,1.93,0,0,1-1.68-.73A4,4,0,0,1,92.27,98V93.51h-.72v4.63Q91.55,101.71,94.38,101.71Z"/><path class="cls-1" d="M101.94,97.76a5,5,0,0,1,.64-2.78,1.84,1.84,0,0,1,1.58-1,1.42,1.42,0,0,1,.85.25V93.5a2,2,0,0,0-.8-.14,2.07,2.07,0,0,0-1.38.51,2.88,2.88,0,0,0-.86,1.42h0V93.51h-.71v8h.71Z"/><path class="cls-1" d="M118.43,100.62a3.1,3.1,0,0,0,.91-2.31,2.59,2.59,0,0,0-.67-1.84,2.76,2.76,0,0,0-1.84-.83v0a2.71,2.71,0,0,0,2-2.71A2.43,2.43,0,0,0,118,91a3,3,0,0,0-2.1-.71h-3v11.2h3A3.34,3.34,0,0,0,118.43,100.62ZM113.75,91h1.86c1.59,0,2.39.67,2.39,2a2.1,2.1,0,0,1-.74,1.69,2.89,2.89,0,0,1-2,.63h-1.56Zm0,9.79V96.06h1.65c2.09,0,3.14.77,3.14,2.32a2.29,2.29,0,0,1-.7,1.8,2.91,2.91,0,0,1-2,.63Z"/><path class="cls-1" d="M123.18,97.76a5.13,5.13,0,0,1,.64-2.78,1.87,1.87,0,0,1,1.59-1,1.41,1.41,0,0,1,.84.25V93.5a2,2,0,0,0-.79-.14,2.07,2.07,0,0,0-1.38.51,3,3,0,0,0-.87,1.42h0V93.51h-.7v8h.7Z"/><path class="cls-1" d="M129.07,91.5a.61.61,0,0,0,.61-.61.52.52,0,0,0-.18-.42.62.62,0,0,0-.43-.16.59.59,0,0,0-.41.16.54.54,0,0,0-.18.42.59.59,0,0,0,.18.44A.6.6,0,0,0,129.07,91.5Z"/><rect class="cls-1" x="128.72" y="93.51" width="0.72" height="8"/><path class="cls-1" d="M135.73,101.71a3.1,3.1,0,0,0,2.88-1.63h0v1q0,3.5-3.31,3.5a4.94,4.94,0,0,1-2.4-.71v.75a5.29,5.29,0,0,0,2.38.61,4,4,0,0,0,3.07-1,4.72,4.72,0,0,0,1-3.3V93.51h-.72v1.27h0a2.7,2.7,0,0,0-2.56-1.46,3.28,3.28,0,0,0-2.66,1.21,4.74,4.74,0,0,0-1,3.12,4.43,4.43,0,0,0,.94,3A3,3,0,0,0,135.73,101.71ZM133.94,95a2.61,2.61,0,0,1,2.12-1,2.42,2.42,0,0,1,1.87.78,2.63,2.63,0,0,1,.71,1.83v1.59a2.92,2.92,0,0,1-.76,2,2.68,2.68,0,0,1-2.06.83,2.37,2.37,0,0,1-1.95-.91,3.93,3.93,0,0,1-.74-2.55A4,4,0,0,1,133.94,95Z"/><path class="cls-1" d="M143.6,97.08a3.17,3.17,0,0,1,.78-2.3A2.46,2.46,0,0,1,146.2,94a1.94,1.94,0,0,1,1.61.66,3.46,3.46,0,0,1,.51,2.09v4.79H149v-5a3.75,3.75,0,0,0-.68-2.4,2.41,2.41,0,0,0-2-.83A3,3,0,0,0,143.63,95h0V89.67h-.72v11.84h.72Z"/><path class="cls-1" d="M152.74,99.54c0,1.42.59,2.13,1.78,2.13a2.48,2.48,0,0,0,1-.27v-.67a2,2,0,0,1-1,.29,1,1,0,0,1-.89-.37,2.18,2.18,0,0,1-.26-1.2V94.17h2.11v-.66h-2.11V91.19a3,3,0,0,1-.36.12l-.36.13v2.07H151.3v.66h1.44Z"/><path class="cls-1" d="M161,101.71a4.64,4.64,0,0,0,2.77-.88v-.77a4.25,4.25,0,0,1-2.62,1,2.55,2.55,0,0,1-2.09-.93,4,4,0,0,1-.76-2.58h5.92v-.32a4.6,4.6,0,0,0-.8-2.85,2.69,2.69,0,0,0-2.29-1.05,3.22,3.22,0,0,0-2.59,1.2,4.48,4.48,0,0,0-1,3,4.63,4.63,0,0,0,1,3.13A3.14,3.14,0,0,0,161,101.71Zm-1.76-7a2.5,2.5,0,0,1,1.86-.76,2.09,2.09,0,0,1,1.71.77,3.55,3.55,0,0,1,.66,2.15h-5.14A3.59,3.59,0,0,1,159.23,94.73Z"/><path class="cls-1" d="M170.64,101.09a2,2,0,0,0,.72-1.58,1.75,1.75,0,0,0-.47-1.27,6,6,0,0,0-1.72-1,4.06,4.06,0,0,1-1.34-.81,1.36,1.36,0,0,1-.31-.93,1.33,1.33,0,0,1,.49-1.07,1.9,1.9,0,0,1,1.27-.41,3.38,3.38,0,0,1,1.84.58v-.81a3.5,3.5,0,0,0-1.76-.42,2.83,2.83,0,0,0-1.84.6,2,2,0,0,0-.28,2.88,4.42,4.42,0,0,0,1.61,1,5,5,0,0,1,1.34.78,1.17,1.17,0,0,1,.42.9c0,1-.63,1.54-1.89,1.54a3,3,0,0,1-1-.2,3,3,0,0,1-1-.56v.87a3.24,3.24,0,0,0,1.93.55A2.91,2.91,0,0,0,170.64,101.09Z"/><path class="cls-1" d="M174.66,99.54q0,2.13,1.77,2.13a2.48,2.48,0,0,0,1.06-.27v-.67a2,2,0,0,1-1,.29,1,1,0,0,1-.89-.37,2.18,2.18,0,0,1-.26-1.2V94.17h2.11v-.66h-2.11V91.19a3,3,0,0,1-.36.12l-.36.13v2.07h-1.44v.66h1.44Z"/><path class="cls-1" d="M186.31,93.37c0-.49,0-1-.06-1.49h0a7.09,7.09,0,0,0,.37,1.06l4,8.57h.25l4-8.62c.11-.23.25-.56.41-1h0c-.06.91-.08,1.46-.08,1.65v8H196V90.31h-.69l-4.12,9c-.17.48-.26.72-.26.74l-.09.25h-.05c-.05-.16-.11-.31-.16-.45s-.07-.18-.1-.27a2.2,2.2,0,0,0-.09-.21l-4.18-9h-.72v11.2h.78Z"/><path class="cls-1" d="M202.88,101.71a3.51,3.51,0,0,0,2.77-1.16,5.17,5.17,0,0,0,0-6.11A3.44,3.44,0,0,0,203,93.32a3.71,3.71,0,0,0-2.81,1.12,5,5,0,0,0,0,6.12A3.5,3.5,0,0,0,202.88,101.71Zm-2.2-6.78a2.84,2.84,0,0,1,2.25-1,2.73,2.73,0,0,1,2.2.92,3.92,3.92,0,0,1,.78,2.62,4,4,0,0,1-.78,2.61,3.13,3.13,0,0,1-4.47,0,3.73,3.73,0,0,1-.82-2.52A3.87,3.87,0,0,1,200.68,94.93Z"/><path class="cls-1" d="M210.32,96.9a3.3,3.3,0,0,1,.65-2.11,2,2,0,0,1,1.62-.82c1.36,0,2,.9,2,2.68v4.86h.71V96.83a3,3,0,0,1,.69-2,2.09,2.09,0,0,1,1.64-.82,1.78,1.78,0,0,1,1.49.61,3.55,3.55,0,0,1,.47,2.12v4.81h.72V96.57c0-2.17-.87-3.25-2.62-3.25a2.61,2.61,0,0,0-1.52.48,3,3,0,0,0-1.08,1.35,2.43,2.43,0,0,0-.84-1.33,2.31,2.31,0,0,0-1.49-.5,2.66,2.66,0,0,0-2.45,1.52h0V93.51h-.72v8h.72Z"/><path class="cls-1" d="M226.59,101.71a4.66,4.66,0,0,0,2.77-.88v-.77a4.27,4.27,0,0,1-2.63,1,2.57,2.57,0,0,1-2.09-.93,4,4,0,0,1-.76-2.58h5.92v-.32a4.59,4.59,0,0,0-.79-2.85,2.71,2.71,0,0,0-2.29-1.05,3.21,3.21,0,0,0-2.59,1.2,4.43,4.43,0,0,0-1,3,4.63,4.63,0,0,0,1,3.13A3.12,3.12,0,0,0,226.59,101.71Zm-1.77-7a2.54,2.54,0,0,1,1.87-.76,2.07,2.07,0,0,1,1.7.77,3.55,3.55,0,0,1,.66,2.15h-5.14A3.65,3.65,0,0,1,224.82,94.73Z"/><path class="cls-1" d="M233.47,96.92a3.06,3.06,0,0,1,.74-2.1,2.43,2.43,0,0,1,1.9-.85c1.38,0,2.08,1,2.08,2.89v4.65h.72V96.65a3.88,3.88,0,0,0-.69-2.47,2.41,2.41,0,0,0-2-.86A2.88,2.88,0,0,0,233.5,95h0V93.51h-.72v8h.72Z"/><path class="cls-1" d="M242.61,99.54q0,2.13,1.77,2.13a2.48,2.48,0,0,0,1.06-.27v-.67a2.06,2.06,0,0,1-1,.29,1,1,0,0,1-.88-.37,2.09,2.09,0,0,1-.26-1.2V94.17h2.11v-.66h-2.11V91.19l-.36.12a3,3,0,0,0-.36.13v2.07h-1.44v.66h1.44Z"/><path class="cls-1" d="M251.47,101.09a2,2,0,0,0,.71-1.58,1.74,1.74,0,0,0-.46-1.27,6.16,6.16,0,0,0-1.72-1,4.14,4.14,0,0,1-1.35-.81,1.4,1.4,0,0,1-.3-.93,1.35,1.35,0,0,1,.48-1.07,2,2,0,0,1,1.28-.41,3.38,3.38,0,0,1,1.84.58v-.81a3.51,3.51,0,0,0-1.77-.42,2.87,2.87,0,0,0-1.84.6,2,2,0,0,0-.74,1.58,1.92,1.92,0,0,0,.46,1.3,4.47,4.47,0,0,0,1.62,1,5.13,5.13,0,0,1,1.34.78,1.16,1.16,0,0,1,.41.9c0,1-.62,1.54-1.88,1.54a3,3,0,0,1-1-.2,3,3,0,0,1-1-.56v.87a3.21,3.21,0,0,0,1.93.55A2.92,2.92,0,0,0,251.47,101.09Z"/><path class="cls-1" d="M154.16,133.72H123.69a3.76,3.76,0,0,0-3.69,3.8v18.4a3.77,3.77,0,0,0,3.69,3.8h30.47a3.76,3.76,0,0,0,3.69-3.8v-18.4A3.75,3.75,0,0,0,154.16,133.72Zm1.75,22.2a1.78,1.78,0,0,1-1.75,1.8H123.69a1.78,1.78,0,0,1-1.75-1.8v-18.4a1.78,1.78,0,0,1,1.75-1.8h30.47a1.78,1.78,0,0,1,1.75,1.8Z"/><path class="cls-1" d="M138.93,138.22a8.5,8.5,0,1,0,8.5,8.5A8.49,8.49,0,0,0,138.93,138.22Zm0,15a6.5,6.5,0,1,1,6.5-6.5A6.5,6.5,0,0,1,138.93,153.22Z"/><circle class="cls-1" cx="126.93" cy="139.72" r="1.5"/></g></g></svg>