<svg xmlns="http://www.w3.org/2000/svg" xmlns:xlink="http://www.w3.org/1999/xlink" viewBox="0 0 172.51 47.69"><defs><style>.cls-1{fill:none;}.cls-2{isolation:isolate;}.cls-3{fill:#fff;}.cls-4{clip-path:url(#clip-path);}.cls-5{fill:#ff2c5e;}</style><clipPath id="clip-path" transform="translate(-1.76 7.48)"><circle class="cls-1" cx="16.06" cy="16.06" r="16.06"/></clipPath></defs><title>logo_w</title><g id="圖層_2" data-name="圖層 2"><g id="圖層_1-2" data-name="圖層 1"><g class="cls-2"><path class="cls-3" d="M48.18,18.67q0,8.38-8.16,8.39a10,10,0,0,1-1.58-.15,13.66,13.66,0,0,1-1.88-.48V21.17a6.19,6.19,0,0,0,1.5.75,4.67,4.67,0,0,0,1.37.28,2.77,2.77,0,0,0,2.28-.94,4.61,4.61,0,0,0,.76-2.92V7.83h5.71Z" transform="translate(-1.76 7.48)"/><path class="cls-3" d="M51.69,26.73V7.83h5.69v18.9Z" transform="translate(-1.76 7.48)"/><path class="cls-3" d="M73,26.73l-.83-3.48H66.48l-.9,3.48H59.42l6.52-18.9H73l6.13,18.9ZM69.37,11.94h-.14a8.37,8.37,0,0,1-.18,1c-.11.49-.64,2.56-1.6,6.23h3.62l-1.32-5.15A15.12,15.12,0,0,1,69.37,11.94Z" transform="translate(-1.76 7.48)"/><path class="cls-3" d="M93.2,26.73l-.83-3.48H86.73l-.9,3.48H79.67l6.52-18.9h7.06l6.13,18.9ZM89.62,11.94h-.14a8.37,8.37,0,0,1-.18,1c-.11.49-.64,2.56-1.6,6.23h3.62L90,14.06A15.12,15.12,0,0,1,89.62,11.94Z" transform="translate(-1.76 7.48)"/><path class="cls-3" d="M113.45,26.73l-.83-3.48H107l-.9,3.48H99.92l6.52-18.9h7.06l6.13,18.9Zm-3.58-14.79h-.14a8.37,8.37,0,0,1-.18,1c-.11.49-.64,2.56-1.6,6.23h3.62l-1.32-5.15A15.12,15.12,0,0,1,109.87,11.94Z" transform="translate(-1.76 7.48)"/></g><g class="cls-2"><path class="cls-3" d="M121.73,26.91a.83.83,0,0,1-.61-.26.89.89,0,0,1,0-1.24.8.8,0,0,1,.61-.26.82.82,0,0,1,.63.26.88.88,0,0,1-.63,1.5Z" transform="translate(-1.76 7.48)"/><path class="cls-3" d="M130.21,26.37a4.17,4.17,0,0,1-2.19.55,3.62,3.62,0,0,1-2.76-1.11,4,4,0,0,1-1.05-2.89,4.44,4.44,0,0,1,1.13-3.17,4,4,0,0,1,3-1.2,4.16,4.16,0,0,1,1.85.39v1.31a3.21,3.21,0,0,0-1.9-.63,2.58,2.58,0,0,0-2,.88,3.32,3.32,0,0,0-.79,2.31,3.18,3.18,0,0,0,.74,2.22,2.54,2.54,0,0,0,2,.81,3.24,3.24,0,0,0,2-.69Z" transform="translate(-1.76 7.48)"/><path class="cls-3" d="M135.49,26.92a3.69,3.69,0,0,1-2.83-1.12,4.14,4.14,0,0,1-1.06-3,4.33,4.33,0,0,1,1.1-3.15,4,4,0,0,1,3-1.13,3.57,3.57,0,0,1,2.79,1.1,4.35,4.35,0,0,1,1,3.05,4.31,4.31,0,0,1-1.08,3.07A3.78,3.78,0,0,1,135.49,26.92Zm.09-7.3a2.44,2.44,0,0,0-2,.84,3.46,3.46,0,0,0-.72,2.32,3.21,3.21,0,0,0,.73,2.24,2.45,2.45,0,0,0,1.94.82,2.35,2.35,0,0,0,1.91-.8,3.47,3.47,0,0,0,.67-2.29,3.52,3.52,0,0,0-.67-2.31A2.3,2.3,0,0,0,135.58,19.62Z" transform="translate(-1.76 7.48)"/><path class="cls-3" d="M152.88,26.73H151.6V22.14a3.46,3.46,0,0,0-.41-1.92,1.54,1.54,0,0,0-1.38-.6,1.69,1.69,0,0,0-1.39.75,2.84,2.84,0,0,0-.58,1.8v4.56h-1.28V22c0-1.57-.61-2.36-1.82-2.36a1.69,1.69,0,0,0-1.39.71,2.9,2.9,0,0,0-.55,1.84v4.56h-1.28v-8h1.28V20h0a2.72,2.72,0,0,1,2.49-1.45,2.28,2.28,0,0,1,2.26,1.65,2.86,2.86,0,0,1,2.66-1.65c1.76,0,2.64,1.08,2.64,3.25Z" transform="translate(-1.76 7.48)"/><path class="cls-3" d="M155.75,26.91a.85.85,0,0,1-.62-.26.89.89,0,0,1,0-1.24.88.88,0,1,1,1.24,1.24A.85.85,0,0,1,155.75,26.91Z" transform="translate(-1.76 7.48)"/><path class="cls-3" d="M162.48,26.66a2.53,2.53,0,0,1-1.19.25c-1.4,0-2.1-.79-2.1-2.35V19.83h-1.38v-1.1h1.38V16.78l1.28-.41v2.36h2v1.1h-2v4.51a1.87,1.87,0,0,0,.27,1.14,1.09,1.09,0,0,0,.91.35,1.31,1.31,0,0,0,.83-.27Z" transform="translate(-1.76 7.48)"/><path class="cls-3" d="M174.27,18.73l-2.4,8h-1.32L168.9,21a3.26,3.26,0,0,1-.13-.74h0a4.22,4.22,0,0,1-.16.72l-1.79,5.74h-1.28l-2.43-8h1.35l1.65,6a3,3,0,0,1,.11.72h.07a3,3,0,0,1,.14-.74l1.84-6h1.17l1.66,6a5,5,0,0,1,.12.71h.06a3.08,3.08,0,0,1,.13-.71l1.63-6Z" transform="translate(-1.76 7.48)"/></g><g id="Component_9_1" data-name="Component 9 1"><g class="cls-4"><g id="Group_8" data-name="Group 8"><g id="Group_7" data-name="Group 7"><g id="R"><path id="Path_63" data-name="Path 63" class="cls-5" d="M11.47,19.5a2.75,2.75,0,0,0-4.74-1.9,7.93,7.93,0,0,0,.84,2h0a1.79,1.79,0,0,0,.11.19A18.52,18.52,0,0,0,9.56,22a1.5,1.5,0,0,1,.13.11A2.75,2.75,0,0,0,11.47,19.5Z" transform="translate(-1.76 7.48)"/><path id="Path_75" data-name="Path 75" class="cls-5" d="M23.14,16.75a2.76,2.76,0,0,0,2.1,2.67h0c.06-.1.11-.2.16-.3l0-.06.12-.26,0-.06.12-.28v0q.14-.33.24-.66v0q0-.14.09-.3v-.05a2.46,2.46,0,0,0,.07-.29v0a8.54,8.54,0,0,0,.18-1v0c0-.1,0-.21,0-.31v0a8.43,8.43,0,0,0,0-1.33h0l0-.32h0a2.73,2.73,0,0,0-3.15,2.24A2.59,2.59,0,0,0,23.14,16.75Z" transform="translate(-1.76 7.48)"/></g><g id="Body"><path id="Path_76" data-name="Path 76" class="cls-3" d="M6.11,17.26a16.27,16.27,0,0,1,.59,3.26,9.81,9.81,0,0,0,2.76,4,12.28,12.28,0,0,1,1-1.78c-.29-.25-.58-.52-.86-.8s-.38-.35-.57-.54a10.28,10.28,0,0,1-1.31-1.63l-.12-.18h0c-.26-.46-1.79-3.13-.71-5.69L7,13.64c.89.12,1.79.2,2.61.24A25,25,0,0,0,13,13.79a8.08,8.08,0,0,1,.37.79,8.32,8.32,0,0,0,1.25,2.64,2.62,2.62,0,0,0,3.42.64,3.27,3.27,0,0,0,.76-.63,4.16,4.16,0,0,0,.84-2.33,11.19,11.19,0,0,1,.69-3,21,21,0,0,0,2.78-1.45l.74-.48.26.07a3.19,3.19,0,0,1,1.65,1.86A6.85,6.85,0,0,1,26.34,14h0l0,.32h0a9.84,9.84,0,0,1,0,1.33v0c0,.1,0,.21,0,.31v0a8.54,8.54,0,0,1-.18,1v0c0,.1-.05.19-.07.29l0,.05c0,.1-.05.2-.08.3v0q-.11.33-.24.66v0l-.12.28,0,.06a1.51,1.51,0,0,1-.12.26l0,.06-.16.3h0a8.61,8.61,0,0,1-.65,1,9.09,9.09,0,0,1-1.13,1.19,9.12,9.12,0,0,1,.81,1.07c.2-.2.37-.37.48-.5a9.17,9.17,0,0,0,2.1-4.11c0-.63.13-1.14.17-1.47a14.53,14.53,0,0,0-.93-7.52,6.29,6.29,0,0,0-.37-.67A8.66,8.66,0,0,0,27,6.72c.89-1.58,1.64-4,.79-4.74-.67-.54-2.11.25-2.91.65s-1.5.72-2.26,1.06c-.75-3.89-2.18-9.85-4-10.78C16-8.5,5.9-5.82,4.28-2.76,3.09-.5,5.68,5.91,7.12,9.13l0,0c-.87.3-1.73.61-2.59.93-1.49.57-2.77,1.06-2.75,1.67s1.9,1.32,4.1,1.7A11.73,11.73,0,0,0,6.11,17.26ZM8.85-.25a1,1,0,0,1,.66-.27l.12,0H9.57a.69.69,0,0,0,.25,0l.44-.07q.45-.07.9-.18a16.06,16.06,0,0,0,1.76-.52l.18-.06.13-.05.54-.21.07,0L14-1.77A3.82,3.82,0,0,0,14.47-2a16.66,16.66,0,0,0,1.61-.87.93.93,0,0,1,1.28.33A.94.94,0,0,1,17-1.23h0A18.91,18.91,0,0,1,14.89-.11a11.59,11.59,0,0,1,.82,1.79A7.41,7.41,0,0,1,16,2.82a7.33,7.33,0,0,1,.13.94A3,3,0,0,1,16,5a2.43,2.43,0,0,1-2,1.54,2.71,2.71,0,0,1-1.13-.18,5.83,5.83,0,0,1-1.41-.71,1,1,0,0,1-.38-.46A.92.92,0,0,1,11.6,4a1,1,0,0,1,.84.06,4.33,4.33,0,0,0,.51.31l.17.1.14.06a2,2,0,0,0,.26.09,1.28,1.28,0,0,0,.28.07h.12l.09,0,.05,0,.1-.09,0,0a.08.08,0,0,1,.05-.07l0,0s0,0,0-.06,0,0,0,0a2.81,2.81,0,0,0,0-.29c0-.12,0-.24,0-.36a.7.7,0,0,0,0-.16l0-.17c0-.11-.05-.22-.07-.32a10.69,10.69,0,0,0-.36-1.09h0c-.12-.23,0-.06,0,0v0a.36.36,0,0,1,0-.09l-.12-.24a4.44,4.44,0,0,0-.24-.49c-.09-.16-.18-.33-.28-.49a18.52,18.52,0,0,1-3.6.79C9,1.42,8.59.87,8.57.42a1,1,0,0,1,.28-.66Z" transform="translate(-1.76 7.48)"/><path id="Path_77" data-name="Path 77" class="cls-3" d="M29.42,28.13a29.86,29.86,0,0,0-1.5-5.05,14.48,14.48,0,0,1-.9-2.54c0-.15-.05-.29-.07-.43l-.06.13v-.07a14.36,14.36,0,0,1-2.36,2.95,10.48,10.48,0,0,1-2.44,1.75l-.7.34-.08-.69-.14-1.23-.05-.38a.93.93,0,0,0-1.05-.82l-1.94.23a3.32,3.32,0,0,1,1.75,1.57,3.55,3.55,0,0,1,.32.95,5.11,5.11,0,0,1,.05.55v.18l0,.3A1.93,1.93,0,0,0,19.39,27a1.74,1.74,0,0,0,0,.68,3.63,3.63,0,0,1-.47.41l.54-.06a2.43,2.43,0,0,0,.67,1.12,3.24,3.24,0,0,0,2.71.54,8.5,8.5,0,0,0,3.48-1.42,14.52,14.52,0,0,1,.12,1.86,13.17,13.17,0,0,1-2.52,7.94,3,3,0,0,1,2.35.9,2.64,2.64,0,0,1,.33.47,11.21,11.21,0,0,0,2.84-4.67A13.14,13.14,0,0,0,29.42,28.13Z" transform="translate(-1.76 7.48)"/><path id="Path_78" data-name="Path 78" class="cls-3" d="M9.51,14.11A1.17,1.17,0,0,0,9,15.6c.18.69.72,1.15,1.2,1s.74-.79.56-1.48S10,14,9.51,14.11Z" transform="translate(-1.76 7.48)"/><path id="Path_79" data-name="Path 79" class="cls-3" d="M23.86,13a.94.94,0,0,0-1.23-.5.94.94,0,0,0,.51,1.8A1.07,1.07,0,0,0,23.86,13Z" transform="translate(-1.76 7.48)"/><path id="Path_80" data-name="Path 80" class="cls-3" d="M14.15,27.14a3.3,3.3,0,0,1,.93-4.46l-.65.07,0-.23a.18.18,0,0,0-.19-.15h0l-1.07.13a.16.16,0,0,0-.15.19h0l0,.22-.15,0a1,1,0,0,0-.83.9V24l.25,2.12.05.43-.56-.22a11.08,11.08,0,0,1-2.47-1.38,14.09,14.09,0,0,1-2.13-2c-.17-.24-.31-.49-.45-.73,0,.31,0,.65-.07,1A24.73,24.73,0,0,1,5.4,28.2a16.18,16.18,0,0,0-.86,5.12c0,.37.29,5,3,6.89a2.44,2.44,0,0,1,.59-1.27,3.21,3.21,0,0,1,2.67-.88,13.26,13.26,0,0,1-2.52-7.75,8.25,8.25,0,0,0,3.22.86,3.22,3.22,0,0,0,2.64-.81,2.42,2.42,0,0,0,.58-1.8l.93-.11A3.32,3.32,0,0,1,14.15,27.14ZM13,23.72a.2.2,0,1,1-.2.2.2.2,0,0,1,.2-.2Z" transform="translate(-1.76 7.48)"/></g></g><path id="Path_123" data-name="Path 123" class="cls-3" d="M17,23a2.35,2.35,0,1,1-2.34,2.34h0A2.34,2.34,0,0,1,17,23Z" transform="translate(-1.76 7.48)"/></g></g></g></g></g></svg>