<svg xmlns="http://www.w3.org/2000/svg" viewBox="0 0 79.68 48"><defs><style>.cls-1{fill:#fff;}.cls-2{isolation:isolate;}</style></defs><title>menu_icon_w</title><g id="圖層_2" data-name="圖層 2"><g id="圖層_1-2" data-name="圖層 1"><rect id="Rectangle_11" data-name="Rectangle 11" class="cls-1" y="32" width="79" height="1"/><rect id="Rectangle_11-2" data-name="Rectangle 11-2" class="cls-1" x="29" y="47" width="50" height="1"/><g id="MENU-2" class="cls-2"><g class="cls-2"><path class="cls-1" d="M39.77,14H37.46V4.94c0-.74,0-1.65.14-2.72h0a9.33,9.33,0,0,1-.38,1.32L33,14H31.4L27.21,3.61a9.26,9.26,0,0,1-.37-1.39h0c.05.56.08,1.47.08,2.74v9H24.73V0H28l3.68,9.33a14.76,14.76,0,0,1,.55,1.6h.05c.24-.74.43-1.28.58-1.64L36.61,0h3.16Z"/><path class="cls-1" d="M51.08,14H43.21V0h7.55V2H45.54v4h4.81v2H45.54V12h5.54Z"/><path class="cls-1" d="M65.44,14H62.9L56.21,3.71a4.45,4.45,0,0,1-.42-.81h-.06a13,13,0,0,1,.08,1.92V14H53.57V0h2.7l6.47,10.05a8.66,8.66,0,0,1,.52.86h0A13.11,13.11,0,0,1,63.2,9V0h2.24Z"/><path class="cls-1" d="M79.68,8.34q0,5.9-5.59,5.9c-3.56,0-5.35-1.89-5.35-5.68V0h2.33V8.09c0,2.74,1.06,4.12,3.2,4.12s3.09-1.33,3.09-4V0h2.32Z"/></g></g></g></g></svg>